<svg width="419" height="419" viewBox="0 0 419 419" fill="none" xmlns="http://www.w3.org/2000/svg">
<path fill-rule="evenodd" clip-rule="evenodd" d="M209.25 418.5C324.816 418.5 418.5 324.816 418.5 209.25C418.5 166.623 405.754 126.974 383.866 93.9045L217.504 278.75C201.4 296.644 174.3 299.288 155.041 284.843L79.05 227.85C68.7775 220.146 66.6957 205.573 74.4 195.3C82.1044 185.028 96.6776 182.946 106.95 190.65L182.941 247.643L353.726 57.8821C316.167 22.0217 265.28 0 209.25 0C93.6844 0 0 93.6844 0 209.25C0 324.816 93.6844 418.5 209.25 418.5Z" fill="#7EAD43"/>
</svg>
